<svg width="30" height="30" viewBox="0 0 30 30" fill="none" xmlns="http://www.w3.org/2000/svg">
<path d="M5.76563 24.234C5.4375 23.9293 5.39063 22.8746 5.39063 16.3356L5.39063 8.81212L4.26563 9.91368C3.65625 10.5231 2.97656 11.0152 2.78906 11.0152C2.34375 11.0152 1.875 10.5465 1.875 10.1246C1.875 9.70275 5.625 5.64806 6.1875 5.484C6.51563 5.36681 7.10156 5.83556 8.60156 7.28868C10.9219 9.58556 11.1328 9.91368 10.7813 10.5465C10.3828 11.2731 9.79688 11.109 8.67188 9.96056C8.10938 9.37462 7.54688 8.90587 7.45313 8.90587C7.35938 8.90587 7.26563 12.3043 7.26563 16.4762C7.26563 24.1168 7.21875 24.609 6.42188 24.609C6.25781 24.609 5.95313 24.4449 5.76563 24.234Z" fill="#957DAD"/>
<path d="M13.4062 24.3285C13.0312 23.9535 13.0547 23.3207 13.4531 22.9926C13.6641 22.8051 15.7969 22.7348 20.7422 22.7816C27.0937 22.852 27.75 22.8988 27.9844 23.2738C28.1719 23.5551 28.1719 23.7895 27.9844 24.0941C27.75 24.4457 27.0937 24.4926 20.7187 24.5629C15.4453 24.6098 13.6172 24.5395 13.4062 24.3285Z" fill="#957DAD"/>
<path d="M13.4063 18.4688C13.0313 18.0938 13.0547 17.6953 13.5 17.25C13.8047 16.9219 14.6485 16.875 19.1953 16.875C24.961 16.875 25.1953 16.9219 25.0313 18.0938L24.961 18.6328L19.336 18.7031C15.1406 18.75 13.6172 18.6797 13.4063 18.4688Z" fill="#957DAD"/>
<path d="M13.5 12.75C13.0547 12.3047 13.0313 11.9062 13.4063 11.5312C13.8047 11.1328 21.586 11.1328 21.9844 11.5312C22.4063 11.9531 22.3125 12.6094 21.8203 12.8906C21.5625 13.0312 19.7578 13.125 17.6016 13.125C14.5078 13.125 13.8047 13.0547 13.5 12.75Z" fill="#957DAD"/>
<path d="M13.4062 6.98438C13.2422 6.82031 13.125 6.53906 13.125 6.32812C13.125 5.55469 13.6406 5.39062 16.1719 5.39062C17.5312 5.39062 18.75 5.48437 18.8906 5.57812C19.2891 5.83594 19.4062 6.39844 19.1719 6.86719C19.0078 7.21875 18.6094 7.26562 16.3359 7.26562C14.5781 7.26562 13.5938 7.17188 13.4062 6.98438Z" fill="#957DAD"/>
</svg>
