<svg width="126" height="126" viewBox="0 0 126 126" fill="none" xmlns="http://www.w3.org/2000/svg">
<path id="icon" d="M24.5625 94.875C29.875 90.8125 35.8125 87.6094 42.375 85.2656C48.9375 82.9219 55.8125 81.75 63 81.75C70.1875 81.75 77.0625 82.9219 83.625 85.2656C90.1875 87.6094 96.125 90.8125 101.437 94.875C105.083 90.6042 107.922 85.7604 109.953 80.3438C111.984 74.9271 113 69.1458 113 63C113 49.1458 108.13 37.349 98.3906 27.6094C88.651 17.8698 76.8542 13 63 13C49.1458 13 37.349 17.8698 27.6094 27.6094C17.8698 37.349 13 49.1458 13 63C13 69.1458 14.0156 74.9271 16.0469 80.3438C18.0781 85.7604 20.9167 90.6042 24.5625 94.875ZM63 69.25C56.8542 69.25 51.6719 67.1406 47.4531 62.9219C43.2344 58.7031 41.125 53.5208 41.125 47.375C41.125 41.2292 43.2344 36.0469 47.4531 31.8281C51.6719 27.6094 56.8542 25.5 63 25.5C69.1458 25.5 74.3281 27.6094 78.5469 31.8281C82.7656 36.0469 84.875 41.2292 84.875 47.375C84.875 53.5208 82.7656 58.7031 78.5469 62.9219C74.3281 67.1406 69.1458 69.25 63 69.25ZM63 125.5C54.3542 125.5 46.2292 123.859 38.625 120.578C31.0208 117.297 24.4062 112.844 18.7812 107.219C13.1562 101.594 8.70313 94.9792 5.42188 87.375C2.14062 79.7708 0.5 71.6458 0.5 63C0.5 54.3542 2.14062 46.2292 5.42188 38.625C8.70313 31.0208 13.1562 24.4062 18.7812 18.7812C24.4062 13.1562 31.0208 8.70313 38.625 5.42188C46.2292 2.14062 54.3542 0.5 63 0.5C71.6458 0.5 79.7708 2.14062 87.375 5.42188C94.9792 8.70313 101.594 13.1562 107.219 18.7812C112.844 24.4062 117.297 31.0208 120.578 38.625C123.859 46.2292 125.5 54.3542 125.5 63C125.5 71.6458 123.859 79.7708 120.578 87.375C117.297 94.9792 112.844 101.594 107.219 107.219C101.594 112.844 94.9792 117.297 87.375 120.578C79.7708 123.859 71.6458 125.5 63 125.5Z" fill="#957DAD"/>
</svg>
